<mxfile host="app.diagrams.net" modified="2021-06-26T00:23:52.370Z" agent="5.0 (Windows NT 6.1; Win64; x64) AppleWebKit/537.36 (KHTML, like Gecko) Chrome/91.0.4472.114 Safari/537.36" etag="GWp7Py2tswNPac7lNb4s" version="14.8.1" type="github">
  <diagram id="O53_BzFKh1CKuRJ91lNf" name="Page-1">
    <mxGraphModel dx="868" dy="488" grid="1" gridSize="10" guides="1" tooltips="1" connect="1" arrows="1" fold="1" page="1" pageScale="1" pageWidth="850" pageHeight="1100" math="0" shadow="0">
      <root>
        <mxCell id="0" />
        <mxCell id="1" parent="0" />
        <mxCell id="UrPRGBc3AC6-OfDezkd7-1" value="" style="pointerEvents=1;shadow=0;dashed=0;html=1;strokeColor=none;fillColor=#505050;labelPosition=center;verticalLabelPosition=bottom;verticalAlign=top;outlineConnect=0;align=center;shape=mxgraph.office.devices.workstation_pc;" vertex="1" parent="1">
          <mxGeometry x="540" y="120" width="53" height="59" as="geometry" />
        </mxCell>
        <mxCell id="UrPRGBc3AC6-OfDezkd7-2" value="" style="pointerEvents=1;shadow=0;dashed=0;html=1;strokeColor=none;fillColor=#505050;labelPosition=center;verticalLabelPosition=bottom;verticalAlign=top;outlineConnect=0;align=center;shape=mxgraph.office.devices.workstation_pc;" vertex="1" parent="1">
          <mxGeometry x="540" y="220" width="53" height="59" as="geometry" />
        </mxCell>
        <mxCell id="UrPRGBc3AC6-OfDezkd7-3" value="" style="fontColor=#0066CC;verticalAlign=top;verticalLabelPosition=bottom;labelPosition=center;align=center;html=1;outlineConnect=0;fillColor=#CCCCCC;strokeColor=#6881B3;gradientColor=none;gradientDirection=north;strokeWidth=2;shape=mxgraph.networks.pc;" vertex="1" parent="1">
          <mxGeometry x="375" y="350" width="100" height="70" as="geometry" />
        </mxCell>
      </root>
    </mxGraphModel>
  </diagram>
</mxfile>
